<?xml version="1.0" encoding="UTF-8"?>
<svg xmlns="http://www.w3.org/2000/svg" xmlns:xlink="http://www.w3.org/1999/xlink" width="300px" height="300px" viewBox="0 0 300 300" version="1.1">
<defs>
<clipPath id="clip1">
  <path d="M 85.136719 110.53125 L 214.605469 110.53125 L 214.605469 189.574219 L 85.136719 189.574219 Z M 85.136719 110.53125 "/>
</clipPath>
<clipPath id="clip2">
  <path d="M 50 84.636719 L 182 84.636719 L 182 215.464844 L 50 215.464844 Z M 50 84.636719 "/>
</clipPath>
</defs>
<g id="surface1">
<rect x="0" y="0" width="300" height="300" style="fill:rgb(10.588235%,27.058824%,44.313725%);fill-opacity:1;stroke:none;"/>
<g clip-path="url(#clip1)" clip-rule="nonzero">
<path style=" stroke:none;fill-rule:nonzero;fill:rgb(100%,100%,100%);fill-opacity:1;" d="M 117.207031 187.847656 L 85.136719 187.847656 L 85.136719 180.71875 C 86.792969 180.648438 88.175781 180.433594 89.285156 180.070312 C 90.40625 179.710938 91.277344 178.882812 91.898438 177.589844 C 92.503906 176.292969 92.804688 174.203125 92.804688 171.324219 L 92.804688 129.96875 C 92.804688 128.023438 92.863281 126.152344 92.976562 124.351562 C 93.078125 122.554688 93.164062 121.1875 93.238281 120.25 C 92.085938 120.320312 90.644531 120.371094 88.917969 120.402344 C 87.191406 120.445312 85.929688 120.503906 85.136719 120.574219 L 85.136719 112.257812 C 90.25 112.1875 95.359375 112.152344 100.472656 112.152344 C 105.582031 112.152344 110.695312 112.117188 115.804688 112.042969 C 122.140625 111.972656 127.648438 112.691406 132.324219 114.203125 C 137.003906 115.714844 140.605469 118.164062 143.125 121.546875 C 145.644531 124.929688 146.832031 129.5 146.6875 135.257812 C 146.617188 138.28125 145.882812 141.164062 144.484375 143.898438 C 143.074219 146.632812 140.984375 149.046875 138.222656 151.132812 C 135.441406 153.21875 131.929688 154.875 127.683594 156.101562 C 129.050781 156.675781 130.402344 157.613281 131.742188 158.90625 C 133.066406 160.203125 134.199219 161.570312 135.132812 163.011719 L 140.207031 170.570312 C 141.792969 173.015625 143.195312 174.960938 144.417969 176.398438 C 145.644531 177.839844 146.867188 178.898438 148.089844 179.574219 C 149.316406 180.265625 150.71875 180.648438 152.300781 180.71875 L 152.300781 187.847656 L 134.484375 187.847656 C 133.191406 186.910156 131.914062 185.558594 130.664062 183.785156 C 129.394531 182.03125 128.042969 180 126.601562 177.695312 L 118.613281 164.738281 C 117.675781 163.296875 116.871094 162.074219 116.195312 161.066406 C 115.503906 160.058594 114.796875 159.195312 114.078125 158.476562 C 112.925781 158.476562 111.953125 158.476562 111.160156 158.476562 C 110.371094 158.476562 109.46875 158.476562 108.460938 158.476562 L 108.460938 170.03125 C 108.460938 172.046875 108.425781 173.953125 108.355469 175.753906 C 108.28125 177.550781 108.175781 178.921875 108.03125 179.855469 C 108.820312 179.785156 109.828125 179.726562 111.054688 179.683594 C 112.277344 179.652344 113.488281 179.617188 114.683594 179.574219 C 115.863281 179.546875 116.703125 179.53125 117.207031 179.53125 Z M 113.644531 150.699219 C 117.675781 150.699219 120.914062 150.101562 123.363281 148.910156 C 125.8125 147.726562 127.597656 145.929688 128.71875 143.507812 C 129.828125 141.105469 130.382812 138.066406 130.382812 134.394531 C 130.382812 130.941406 129.84375 128.21875 128.761719 126.230469 C 127.683594 124.261719 126.335938 122.785156 124.722656 121.804688 C 123.097656 120.839844 121.457031 120.230469 119.800781 119.96875 C 118.144531 119.726562 116.777344 119.601562 115.695312 119.601562 C 114.183594 119.601562 112.890625 119.78125 111.808594 120.140625 C 110.730469 120.503906 109.902344 121.292969 109.324219 122.519531 C 108.75 123.742188 108.460938 125.613281 108.460938 128.132812 L 108.460938 150.269531 C 109.253906 150.339844 110.082031 150.425781 110.945312 150.527344 C 111.808594 150.644531 112.710938 150.699219 113.644531 150.699219 Z M 209.964844 136.449219 L 202.835938 136.449219 C 202.191406 132.417969 201.039062 129.046875 199.382812 126.339844 C 197.726562 123.648438 195.617188 121.617188 193.054688 120.25 C 190.507812 118.882812 187.539062 118.234375 184.15625 118.304688 C 181.0625 118.304688 178.339844 119.171875 175.992188 120.898438 C 173.660156 122.625 172.496094 124.855469 172.496094 127.59375 C 172.496094 129.824219 173.121094 131.769531 174.375 133.425781 C 175.640625 135.078125 177.570312 136.628906 180.160156 138.066406 C 182.753906 139.507812 186.027344 141.054688 189.988281 142.710938 C 192.722656 143.789062 195.53125 145.050781 198.410156 146.488281 C 201.289062 147.929688 203.953125 149.636719 206.402344 151.609375 C 208.847656 153.59375 210.828125 155.898438 212.339844 158.519531 C 213.851562 161.152344 214.609375 164.234375 214.609375 167.761719 C 214.609375 172.007812 213.457031 175.789062 211.152344 179.101562 C 208.847656 182.410156 205.625 184.980469 201.476562 186.808594 C 197.34375 188.652344 192.507812 189.574219 186.964844 189.574219 C 184.085938 189.574219 180.96875 189.128906 177.613281 188.234375 C 174.273438 187.328125 171.128906 186.011719 168.175781 184.28125 L 168.5 188.816406 L 160.183594 188.816406 L 160.183594 163.550781 L 167.3125 163.550781 C 168.320312 169.597656 170.636719 174.148438 174.265625 177.199219 C 177.910156 180.265625 182.25 181.800781 187.289062 181.800781 C 189.878906 181.800781 192.148438 181.332031 194.089844 180.394531 C 196.035156 179.460938 197.546875 178.214844 198.625 176.660156 C 199.707031 175.117188 200.246094 173.449219 200.246094 171.648438 C 200.246094 169.128906 199.359375 167.042969 197.589844 165.386719 C 195.832031 163.730469 193.636719 162.328125 191.003906 161.175781 C 188.382812 160.023438 185.703125 158.90625 182.96875 157.828125 C 179.511719 156.386719 176.289062 154.855469 173.292969 153.226562 C 170.3125 151.613281 167.707031 149.765625 165.476562 147.675781 C 163.246094 145.589844 161.515625 143.191406 160.292969 140.484375 C 159.070312 137.792969 158.457031 134.683594 158.457031 131.15625 C 158.457031 128.925781 158.890625 126.597656 159.753906 124.179688 C 160.617188 121.777344 162.019531 119.542969 163.964844 117.484375 C 165.90625 115.441406 168.5 113.769531 171.738281 112.476562 C 174.976562 111.179688 178.972656 110.53125 183.726562 110.53125 C 186.605469 110.53125 189.75 110.964844 193.164062 111.828125 C 196.589844 112.691406 199.527344 113.988281 201.972656 115.714844 L 201.542969 111.289062 L 209.964844 111.289062 Z M 209.964844 136.449219 "/>
</g>
<g clip-path="url(#clip2)" clip-rule="nonzero">
<path style="fill-rule:nonzero;fill:rgb(100%,100%,100%);fill-opacity:1;stroke-width:1;stroke-linecap:butt;stroke-linejoin:miter;stroke:rgb(100%,100%,100%);stroke-opacity:1;stroke-miterlimit:4;" d="M 256.836357 42.98942 L 256.836357 0.35576 L 10.348758 0.35576 L 10.348758 246.843359 L 256.836357 246.843359 L 256.836357 204.217074 L 243.377366 204.217074 L 243.377366 233.384368 L 23.807749 233.384368 L 23.807749 13.814751 L 243.377366 13.814751 L 243.377366 42.98942 Z M 256.836357 42.98942 " transform="matrix(0.529676,0,0,0.529676,45.123979,84.585)"/>
</g>
</g>
</svg>
